#ifndef SONGS_HPP
#define SONGS_HPP
#include <pitches.h>

#define HAPPY_BIRTHDAY_LENGTH 26
int happyBirthday[] = {
        NOTE_D4, -8 , NOTE_D4, 8, NOTE_E4, 4, NOTE_D4, 4, NOTE_G4, 4, NOTE_FS4, 2,
        NOTE_D4, -8, NOTE_D4, 8, NOTE_E4, 4, NOTE_D4, 4, NOTE_A4, 4, NOTE_G4, 2,
        NOTE_D4, -8, NOTE_D4, 8, NOTE_D5, 4, NOTE_B4, 4, NOTE_G4, 8, NOTE_G4, 8, NOTE_FS4, 4, NOTE_E4, 4,
        NOTE_C5, -8, NOTE_C5, 8, NOTE_B4, 4, NOTE_G4, 4, NOTE_A4, 4, NOTE_G4, 2
    };

#define WHEELS_ON_THE_BUS_LENGTH 27
int wheelsOnTheBus[] = {
    NOTE_C4, 4 , NOTE_F4, 4, NOTE_F4, 8, NOTE_F4, 8, NOTE_F4, 4, NOTE_A4, 4, NOTE_C5, 4, NOTE_A4, 4, NOTE_F4, 2,
    NOTE_G4, 4, NOTE_G4, 4, NOTE_G4, 2,
    NOTE_E4, 4, NOTE_D4, 4, NOTE_C4, 4,
    NOTE_C4, 4 , NOTE_F4, 4, NOTE_F4, 8, NOTE_F4, 8, NOTE_F4, 4, NOTE_A4, 4, NOTE_C5, 4, NOTE_A4, 4, NOTE_F4, 2,
    NOTE_G4, 2, NOTE_C4, 2, NOTE_F4, 2
};

#define FIVE_LITTLE_DUCKS_LENGTH 34
int fiveLittleDucks[] = {
    NOTE_D5, 4 , NOTE_D5, 8, NOTE_D5, 8, NOTE_D5, 4, NOTE_FS5, 4, NOTE_A5, 8, NOTE_A5, 8, NOTE_FS5, 4, NOTE_D5, 2,
    NOTE_E5, 4 , NOTE_E5, 8, NOTE_E5, 8, NOTE_E5, 4, NOTE_D5, 4, NOTE_CS5, 4, NOTE_B4, 4, NOTE_A4, 2,
    NOTE_D5, 8 , NOTE_D5, 8, NOTE_D5, 4, NOTE_FS5, 4, NOTE_FS5, 4, NOTE_A5, 4, NOTE_FS5, 4, NOTE_D5, 4,
    NOTE_D5, 4 , NOTE_D5, 8, NOTE_D5, 8,  NOTE_FS5, 4, NOTE_G5, 8, NOTE_G5, 8, NOTE_A4, 4, NOTE_C4, 4, NOTE_D5, 2
};


#endif //SONGS_HPP
